<?xml version="1.0" encoding="UTF-8"?>
<!DOCTYPE score-partwise PUBLIC "-//Recordare//DTD MusicXML 3.0.1 Partwise//EN" "http://www.musicxml.org/dtds/partwise.dtd">
<score-partwise version="3.0.1">
  <work>
    <work-number>Lagu Wajlb Kebangsaan Indonesm</work-number>
    <work-title>Indonesia Raya</work-title>
  </work>
  <identification>
    <creator type="composer">http://sahabatkuseni.blogspot.com</creator>
    <creator type="composer">Transcribed : Dede Swnd</creator>
    <encoding>
      <software>Audiveris 5.1.0</software>
      <supports type="yes" element="print" attribute="new-system" value="yes"></supports>
      <supports type="yes" element="print" attribute="new-page" value="yes"></supports>
      <software>ProxyMusic 3.0.1.8e1a2c5</software>
      <encoding-date>2019-01-10</encoding-date>
    </encoding>
    <source>/Users/lukicenturi/Sites/playmypaper/public/scan/15471056521134292584.jpg</source>
    <miscellaneous>
      <miscellaneous-field name="source-file">/Users/lukicenturi/Sites/playmypaper/public/scan/15471056521134292584.jpg</miscellaneous-field>
      <miscellaneous-field name="source-sheet-1">1 2 3 4 5 6 7 8 9</miscellaneous-field>
    </miscellaneous>
  </identification>
  <defaults>
    <scaling>
      <millimeters>3.7253</millimeters>
      <tenths>40</tenths>
    </scaling>
    <page-layout>
      <page-height>1455</page-height>
      <page-width>1095</page-width>
      <page-margins type="both">
        <left-margin>80</left-margin>
        <right-margin>80</right-margin>
        <top-margin>80</top-margin>
        <bottom-margin>80</bottom-margin>
      </page-margins>
    </page-layout>
    <lyric-font font-family="Default" font-size="10"></lyric-font>
  </defaults>
  <credit page="1">
    <credit-words default-x="396" default-y="1422" font-family="serif" font-size="12">Indonesia Raya</credit-words>
  </credit>
  <credit page="1">
    <credit-type>composer</credit-type>
    <credit-words default-x="745" default-y="1422" font-family="serif" font-style="italic" font-size="7">http://sahabatkuseni.blogspot.com</credit-words>
  </credit>
  <credit page="1">
    <credit-words default-x="325" default-y="1385" font-family="serif" font-size="5" font-weight="bold">„</credit-words>
  </credit>
  <credit page="1">
    <credit-words default-x="750" default-y="1385" font-family="sans-serif" font-size="8">„</credit-words>
  </credit>
  <credit page="1">
    <credit-words default-x="333" default-y="1374" font-family="serif" font-style="italic" font-size="8">Lagu Wajlb Kebangsaan Indonesm</credit-words>
  </credit>
  <credit page="1">
    <credit-words default-x="864" default-y="1374" font-family="serif" font-size="6">Cipt : WR. Soepm</credit-words>
  </credit>
  <credit page="1">
    <credit-words default-x="35" default-y="1338" font-family="serif" font-size="7">J = ( 90 100 )</credit-words>
  </credit>
  <credit page="1">
    <credit-type>composer</credit-type>
    <credit-words default-x="850" default-y="1335" font-family="serif" font-size="6">Transcribed : Dede Swnd</credit-words>
  </credit>
  <credit page="1">
    <credit-words default-x="130" default-y="799" font-family="serif" font-size="7">ki</credit-words>
  </credit>
  <credit page="1">
    <credit-words default-x="192" default-y="799" font-family="serif" font-size="6">ta</credit-words>
  </credit>
  <credit page="1">
    <credit-words default-x="333" default-y="799" font-family="serif" font-size="7">se</credit-words>
  </credit>
  <credit page="1">
    <credit-words default-x="439" default-y="799" font-family="serif" font-size="6">ru</credit-words>
  </credit>
  <credit page="1">
    <credit-words default-x="794" default-y="799" font-family="serif" font-size="7">sa</credit-words>
  </credit>
  <credit page="1">
    <credit-words default-x="872" default-y="799" font-family="serif" font-size="6">tu</credit-words>
  </credit>
  <part-list>
    <score-part id="P1">
      <part-name>Voice</part-name>
      <score-instrument id="P1-I1">
        <instrument-name>Voice Oohs</instrument-name>
      </score-instrument>
      <midi-instrument id="P1-I1">
        <midi-channel>1</midi-channel>
        <midi-program>54</midi-program>
        <volume>78</volume>
      </midi-instrument>
    </score-part>
  </part-list>
  <!--= = = = = = = = = = = = = = = = = = = = = = = = = = = = =-->
  <part id="P1">
    <!--=======================================================-->
    <measure number="1" width="240">
      <print>
        <system-layout>
          <system-margins>
            <left-margin>-73</left-margin>
            <right-margin>-73</right-margin>
          </system-margins>
          <top-system-distance>76</top-system-distance>
        </system-layout>
        <measure-numbering>system</measure-numbering>
      </print>
      <attributes>
        <divisions>4</divisions>
        <time>
          <beats>4</beats>
          <beat-type>4</beat-type>
        </time>
        <clef>
          <sign>G</sign>
          <line>2</line>
        </clef>
        <staff-details print-object="yes"></staff-details>
      </attributes>
      <direction>
        <direction-type>
          <words></words>
        </direction-type>
        <sound tempo="120"></sound>
      </direction>
      <note default-x="79">
        <rest>
          <display-step>B</display-step>
          <display-octave>4</display-octave>
        </rest>
        <duration>12</duration>
        <voice>1</voice>
        <type>half</type>
        <dot/>
      </note>
      <note default-x="172">
        <pitch>
          <step>E</step>
          <octave>4</octave>
        </pitch>
        <duration>3</duration>
        <voice>1</voice>
        <type>eighth</type>
        <dot/>
        <stem default-y="0">up</stem>
        <beam number="1">begin</beam>
        <lyric number="1" default-y="-85">
          <syllabic>begin</syllabic>
          <text>In</text>
        </lyric>
      </note>
      <note default-x="212">
        <pitch>
          <step>F</step>
          <octave>4</octave>
        </pitch>
        <duration>1</duration>
        <voice>1</voice>
        <type>16th</type>
        <stem default-y="2">up</stem>
        <beam number="1">end</beam>
        <beam number="2">backward hook</beam>
        <lyric number="1" default-y="-85">
          <syllabic>middle</syllabic>
          <text>do</text>
        </lyric>
      </note>
    </measure>
    <!--=======================================================-->
    <measure number="2" width="249">
      <note default-x="16">
        <pitch>
          <step>G</step>
          <octave>4</octave>
        </pitch>
        <duration>4</duration>
        <voice>1</voice>
        <type>quarter</type>
        <stem default-y="5">up</stem>
        <lyric number="1" default-y="-85">
          <syllabic>middle</syllabic>
          <text>ne</text>
        </lyric>
      </note>
      <note default-x="62">
        <pitch>
          <step>E</step>
          <octave>5</octave>
        </pitch>
        <duration>4</duration>
        <voice>1</voice>
        <type>quarter</type>
        <stem default-y="-42">down</stem>
        <lyric number="1" default-y="-85">
          <syllabic>end</syllabic>
          <text>sia</text>
        </lyric>
      </note>
      <note default-x="141">
        <pitch>
          <step>E</step>
          <octave>5</octave>
        </pitch>
        <duration>2</duration>
        <voice>1</voice>
        <type>eighth</type>
        <stem default-y="-42">down</stem>
        <lyric number="1" default-y="-85">
          <syllabic>begin</syllabic>
          <text>ta</text>
        </lyric>
      </note>
      <note default-x="185">
        <pitch>
          <step>D</step>
          <octave>5</octave>
        </pitch>
        <duration>3</duration>
        <voice>1</voice>
        <type>eighth</type>
        <dot/>
        <stem default-y="-44">down</stem>
        <beam number="1">begin</beam>
        <lyric number="1" default-y="-85">
          <syllabic>end</syllabic>
          <text>nah</text>
        </lyric>
      </note>
      <note default-x="224">
        <pitch>
          <step>D</step>
          <octave>5</octave>
        </pitch>
        <duration>1</duration>
        <voice>1</voice>
        <type>16th</type>
        <stem default-y="-44">down</stem>
        <beam number="1">end</beam>
        <beam number="2">backward hook</beam>
        <lyric number="1" default-y="-85">
          <syllabic>single</syllabic>
          <text>a</text>
        </lyric>
      </note>
    </measure>
    <!--=======================================================-->
    <measure number="3" width="213">
      <note default-x="17">
        <pitch>
          <step>C</step>
          <octave>5</octave>
        </pitch>
        <duration>4</duration>
        <voice>1</voice>
        <type>quarter</type>
        <stem default-y="-52">down</stem>
        <lyric number="1" default-y="-85">
          <syllabic>begin</syllabic>
          <text>i:</text>
        </lyric>
      </note>
      <note default-x="63">
        <pitch>
          <step>G</step>
          <octave>4</octave>
        </pitch>
        <duration>8</duration>
        <voice>1</voice>
        <type>half</type>
        <stem default-y="5">up</stem>
        <lyric number="1" default-y="-85">
          <syllabic>end</syllabic>
          <text>ku</text>
        </lyric>
      </note>
      <note default-x="140">
        <pitch>
          <step>G</step>
          <octave>4</octave>
        </pitch>
        <duration>2</duration>
        <voice>1</voice>
        <type>eighth</type>
        <stem default-y="3">up</stem>
        <beam number="1">begin</beam>
        <lyric number="1" default-y="-85">
          <syllabic>begin</syllabic>
          <text>Ta</text>
        </lyric>
      </note>
      <note default-x="187">
        <pitch>
          <step>G</step>
          <octave>4</octave>
        </pitch>
        <duration>1</duration>
        <voice>1</voice>
        <type>16th</type>
        <stem default-y="3">up</stem>
        <beam number="1">end</beam>
        <beam number="2">backward hook</beam>
        <lyric number="1" default-y="-85">
          <syllabic>middle</syllabic>
          <text>nahtum</text>
        </lyric>
      </note>
    </measure>
    <!--=======================================================-->
    <measure number="4" width="206">
      <note default-x="15">
        <pitch>
          <step>A</step>
          <octave>4</octave>
        </pitch>
        <duration>4</duration>
        <voice>1</voice>
        <type>quarter</type>
        <stem default-y="10">up</stem>
      </note>
      <note default-x="69">
        <pitch>
          <step>G</step>
          <octave>4</octave>
        </pitch>
        <duration>4</duration>
        <voice>1</voice>
        <type>quarter</type>
        <stem default-y="5">up</stem>
        <lyric number="1" default-y="-85">
          <syllabic>end</syllabic>
          <text>pah</text>
        </lyric>
      </note>
      <note default-x="115">
        <pitch>
          <step>F</step>
          <octave>4</octave>
        </pitch>
        <duration>4</duration>
        <voice>1</voice>
        <type>quarter</type>
        <stem default-y="0">up</stem>
        <lyric number="1" default-y="-85">
          <syllabic>begin</syllabic>
          <text>da</text>
        </lyric>
      </note>
      <note default-x="161">
        <pitch>
          <step>E</step>
          <octave>4</octave>
        </pitch>
        <duration>4</duration>
        <voice>1</voice>
        <type>quarter</type>
        <stem default-y="-5">up</stem>
        <lyric number="1" default-y="-85">
          <syllabic>end</syllabic>
          <text>rah</text>
        </lyric>
      </note>
    </measure>
    <!--=======================================================-->
    <measure number="5" width="173">
      <note default-x="16">
        <pitch>
          <step>D</step>
          <octave>4</octave>
        </pitch>
        <duration>8</duration>
        <voice>1</voice>
        <type>half</type>
        <stem default-y="-10">up</stem>
        <lyric number="1" default-y="-85">
          <syllabic>single</syllabic>
          <text>ku</text>
        </lyric>
      </note>
      <note default-x="108">
        <pitch>
          <step>D</step>
          <octave>4</octave>
        </pitch>
        <duration>3</duration>
        <voice>1</voice>
        <type>eighth</type>
        <dot/>
        <stem default-y="-10">up</stem>
        <beam number="1">begin</beam>
        <lyric number="1" default-y="-85">
          <syllabic>begin</syllabic>
          <text>Di</text>
        </lyric>
      </note>
      <note default-x="149">
        <pitch>
          <step>E</step>
          <octave>4</octave>
        </pitch>
        <duration>1</duration>
        <voice>1</voice>
        <type>16th</type>
        <stem default-y="-8">up</stem>
        <beam number="1">end</beam>
        <beam number="2">backward hook</beam>
        <lyric number="1" default-y="-85">
          <syllabic>end</syllabic>
          <text>sa</text>
        </lyric>
      </note>
    </measure>
    <!--=======================================================-->
    <measure number="6" width="353">
      <print new-system="yes">
        <system-layout>
          <system-margins>
            <left-margin>-73</left-margin>
            <right-margin>-73</right-margin>
          </system-margins>
          <system-distance>96</system-distance>
        </system-layout>
      </print>
      <attributes>
        <staff-details print-object="yes"></staff-details>
      </attributes>
      <note default-x="61">
        <pitch>
          <step>F</step>
          <octave>4</octave>
        </pitch>
        <duration>4</duration>
        <voice>1</voice>
        <type>quarter</type>
        <stem default-y="0">up</stem>
        <lyric number="1" default-y="-84">
          <syllabic>begin</syllabic>
          <text>na</text>
        </lyric>
      </note>
      <note default-x="119">
        <pitch>
          <step>D</step>
          <octave>5</octave>
        </pitch>
        <duration>4</duration>
        <voice>1</voice>
        <type>quarter</type>
        <stem default-y="-46">down</stem>
        <lyric number="1" default-y="-84">
          <syllabic>end</syllabic>
          <text>lah</text>
        </lyric>
      </note>
      <direction placement="above">
        <direction-type>
          <words default-y="53" relative-x="-52" font-family="serif" font-size="8">In-do-ne-sia</words>
        </direction-type>
      </direction>
      <note default-x="221">
        <pitch>
          <step>D</step>
          <octave>5</octave>
        </pitch>
        <duration>2</duration>
        <voice>1</voice>
        <type>eighth</type>
        <stem default-y="-47">down</stem>
        <lyric number="1" default-y="-84">
          <syllabic>begin</syllabic>
          <text>a</text>
        </lyric>
      </note>
      <note default-x="265">
        <pitch>
          <step>C</step>
          <octave>5</octave>
        </pitch>
        <duration>3</duration>
        <voice>1</voice>
        <type>eighth</type>
        <dot/>
        <stem default-y="-51">down</stem>
        <beam number="1">begin</beam>
        <lyric number="1" default-y="-84">
          <syllabic>end</syllabic>
          <text>ku</text>
        </lyric>
      </note>
      <note default-x="315">
        <pitch>
          <step>C</step>
          <octave>5</octave>
        </pitch>
        <duration>1</duration>
        <voice>1</voice>
        <type>16th</type>
        <stem default-y="-51">down</stem>
        <beam number="1">end</beam>
        <beam number="2">backward hook</beam>
        <lyric number="1" default-y="-84">
          <syllabic>begin</syllabic>
          <text>ber</text>
        </lyric>
      </note>
    </measure>
    <!--=======================================================-->
    <measure number="7" width="258">
      <note default-x="16">
        <pitch>
          <step>B</step>
          <octave>4</octave>
        </pitch>
        <duration>4</duration>
        <voice>1</voice>
        <type>quarter</type>
        <stem default-y="-57">down</stem>
        <lyric number="1" default-y="-84">
          <syllabic>middle</syllabic>
          <text>di</text>
        </lyric>
      </note>
      <direction placement="above">
        <direction-type>
          <words default-y="53" relative-x="-48" font-family="serif" font-size="7" font-weight="bold">ta-nah a i: -ku</words>
        </direction-type>
      </direction>
      <note default-x="75">
        <pitch>
          <step>A</step>
          <octave>4</octave>
        </pitch>
        <duration>8</duration>
        <voice>1</voice>
        <type>half</type>
        <stem default-y="9">up</stem>
        <lyric number="1" default-y="-85">
          <syllabic>end</syllabic>
          <text>ri</text>
        </lyric>
      </note>
      <note default-x="175">
        <pitch>
          <step>G</step>
          <octave>4</octave>
        </pitch>
        <duration>3</duration>
        <voice>1</voice>
        <type>eighth</type>
        <dot/>
        <stem default-y="2">up</stem>
        <beam number="1">begin</beam>
        <lyric number="1" default-y="-85">
          <syllabic>begin</syllabic>
          <text>Ja</text>
        </lyric>
      </note>
      <note default-x="226">
        <pitch>
          <step>G</step>
          <octave>4</octave>
        </pitch>
        <duration>1</duration>
        <voice>1</voice>
        <type>16th</type>
        <stem default-y="2">up</stem>
        <beam number="1">end</beam>
        <beam number="2">backward hook</beam>
        <lyric number="1" default-y="-84">
          <syllabic>end</syllabic>
          <text>di</text>
        </lyric>
      </note>
    </measure>
    <!--=======================================================-->
    <measure number="8" width="252">
      <direction placement="above">
        <direction-type>
          <words default-y="53" relative-x="-3" font-family="serif" font-size="7">Ta-nahtum-pah da-rah ku</words>
        </direction-type>
      </direction>
      <note default-x="15">
        <pitch>
          <step>B</step>
          <octave>4</octave>
        </pitch>
        <duration>4</duration>
        <voice>1</voice>
        <type>quarter</type>
        <stem default-y="-57">down</stem>
        <lyric number="1" default-y="-84">
          <syllabic>begin</syllabic>
          <text>pan</text>
        </lyric>
      </note>
      <note default-x="75">
        <pitch>
          <step>A</step>
          <octave>4</octave>
        </pitch>
        <duration>4</duration>
        <voice>1</voice>
        <type>quarter</type>
        <stem default-y="9">up</stem>
        <lyric number="1" default-y="-85">
          <syllabic>end</syllabic>
          <text>du</text>
        </lyric>
      </note>
      <note default-x="134">
        <pitch>
          <step>G</step>
          <octave>4</octave>
        </pitch>
        <duration>4</duration>
        <voice>1</voice>
        <type>quarter</type>
        <stem default-y="5">up</stem>
        <lyric number="1" default-y="-85">
          <syllabic>begin</syllabic>
          <text>I</text>
        </lyric>
      </note>
      <note default-x="194">
        <pitch>
          <step>F</step>
          <octave>4</octave>
        </pitch>
        <duration>4</duration>
        <voice>1</voice>
        <type>quarter</type>
        <stem default-y="0">up</stem>
        <lyric number="1" default-y="-85">
          <syllabic>middle</syllabic>
          <text>bu</text>
        </lyric>
      </note>
    </measure>
    <!--=======================================================-->
    <measure number="9" width="218">
      <note default-x="17">
        <pitch>
          <step>E</step>
          <octave>4</octave>
        </pitch>
        <duration>12</duration>
        <voice>1</voice>
        <type>half</type>
        <dot/>
        <stem default-y="-6">up</stem>
        <lyric number="1" default-y="-85">
          <syllabic>end</syllabic>
          <text>ku</text>
        </lyric>
      </note>
      <direction placement="above">
        <direction-type>
          <words default-y="53" relative-x="15" font-family="serif" font-size="7" font-weight="bold">Di-sa</words>
        </direction-type>
      </direction>
      <note default-x="135">
        <pitch>
          <step>E</step>
          <octave>4</octave>
        </pitch>
        <duration>3</duration>
        <voice>1</voice>
        <type>eighth</type>
        <dot/>
        <stem default-y="1">up</stem>
        <beam number="1">begin</beam>
        <lyric number="1" default-y="-84">
          <syllabic>begin</syllabic>
          <text>In</text>
        </lyric>
      </note>
      <note default-x="185">
        <pitch>
          <step>F</step>
          <octave>4</octave>
        </pitch>
        <duration>1</duration>
        <voice>1</voice>
        <type>16th</type>
        <stem default-y="2">up</stem>
        <beam number="1">end</beam>
        <beam number="2">backward hook</beam>
        <lyric number="1" default-y="-84">
          <syllabic>end</syllabic>
          <text>do</text>
        </lyric>
      </note>
    </measure>
    <!--=======================================================-->
    <measure number="10" width="345">
      <print new-system="yes">
        <system-layout>
          <system-margins>
            <left-margin>-73</left-margin>
            <right-margin>-73</right-margin>
          </system-margins>
          <system-distance>95</system-distance>
        </system-layout>
      </print>
      <attributes>
        <staff-details print-object="yes"></staff-details>
      </attributes>
      <direction placement="above">
        <direction-type>
          <words default-y="53" relative-x="-5" font-family="serif" font-size="9">na-lah</words>
        </direction-type>
      </direction>
      <note default-x="61">
        <pitch>
          <step>G</step>
          <octave>4</octave>
        </pitch>
        <duration>4</duration>
        <voice>1</voice>
        <type>quarter</type>
        <stem default-y="5">up</stem>
        <lyric number="1" default-y="-84">
          <syllabic>single</syllabic>
          <text>ne</text>
        </lyric>
      </note>
      <note default-x="116">
        <pitch>
          <step>E</step>
          <octave>5</octave>
        </pitch>
        <duration>4</duration>
        <voice>1</voice>
        <type>quarter</type>
        <stem default-y="-41">down</stem>
        <lyric number="1" default-y="-84">
          <syllabic>single</syllabic>
          <text>sia</text>
        </lyric>
      </note>
      <direction placement="above">
        <direction-type>
          <words default-y="53" relative-x="10" font-family="serif" font-size="10">a-ku ber-di-ri</words>
        </direction-type>
      </direction>
      <note default-x="214">
        <pitch>
          <step>E</step>
          <octave>5</octave>
        </pitch>
        <duration>2</duration>
        <voice>1</voice>
        <type>eighth</type>
        <stem default-y="-41">down</stem>
        <lyric number="1" default-y="-84">
          <syllabic>begin</syllabic>
          <text>ke</text>
        </lyric>
      </note>
      <note default-x="265">
        <pitch>
          <step>D</step>
          <octave>5</octave>
        </pitch>
        <duration>3</duration>
        <voice>1</voice>
        <type>eighth</type>
        <dot/>
        <stem default-y="-44">down</stem>
        <beam number="1">begin</beam>
        <lyric number="1" default-y="-84">
          <syllabic>middle</syllabic>
          <text>bang</text>
        </lyric>
      </note>
      <note default-x="315">
        <pitch>
          <step>D</step>
          <octave>5</octave>
        </pitch>
        <duration>1</duration>
        <voice>1</voice>
        <type>16th</type>
        <stem default-y="-44">down</stem>
        <beam number="1">end</beam>
        <beam number="2">backward hook</beam>
        <lyric number="1" default-y="-84">
          <syllabic>end</syllabic>
          <text>sa</text>
        </lyric>
      </note>
    </measure>
    <!--=======================================================-->
    <measure number="11" width="249">
      <note default-x="16">
        <pitch>
          <step>C</step>
          <octave>5</octave>
        </pitch>
        <duration>4</duration>
        <voice>1</voice>
        <type>quarter</type>
        <stem default-y="-51">down</stem>
        <lyric number="1" default-y="-84">
          <syllabic>begin</syllabic>
          <text>an</text>
        </lyric>
      </note>
      <note default-x="75">
        <pitch>
          <step>G</step>
          <octave>4</octave>
        </pitch>
        <duration>8</duration>
        <voice>1</voice>
        <type>half</type>
        <stem default-y="5">up</stem>
        <lyric number="1" default-y="-84">
          <syllabic>end</syllabic>
          <text>ku</text>
        </lyric>
      </note>
      <direction placement="above">
        <direction-type>
          <words default-y="53" relative-x="13" font-family="serif" font-size="10">Ja-di pan-du I-bu- ku</words>
        </direction-type>
      </direction>
      <note default-x="168">
        <pitch>
          <step>G</step>
          <octave>4</octave>
        </pitch>
        <duration>3</duration>
        <voice>1</voice>
        <type>eighth</type>
        <dot/>
        <stem default-y="2">up</stem>
        <beam number="1">begin</beam>
        <lyric number="1" default-y="-84">
          <syllabic>begin</syllabic>
          <text>Bang</text>
        </lyric>
      </note>
      <note default-x="219">
        <pitch>
          <step>G</step>
          <octave>4</octave>
        </pitch>
        <duration>1</duration>
        <voice>1</voice>
        <type>16th</type>
        <stem default-y="2">up</stem>
        <beam number="1">end</beam>
        <beam number="2">backward hook</beam>
        <lyric number="1" default-y="-84">
          <syllabic>end</syllabic>
          <text>5a</text>
        </lyric>
      </note>
    </measure>
    <!--=======================================================-->
    <measure number="12" width="240">
      <note default-x="15">
        <pitch>
          <step>A</step>
          <octave>4</octave>
        </pitch>
        <duration>4</duration>
        <voice>1</voice>
        <type>quarter</type>
        <stem default-y="10">up</stem>
        <lyric number="1" default-y="-84">
          <syllabic>single</syllabic>
          <text>dan</text>
        </lyric>
      </note>
      <note default-x="73">
        <pitch>
          <step>G</step>
          <octave>4</octave>
        </pitch>
        <duration>4</duration>
        <voice>1</voice>
        <type>quarter</type>
        <stem default-y="5">up</stem>
        <lyric number="1" default-y="-84">
          <syllabic>single</syllabic>
          <text>ta</text>
        </lyric>
      </note>
      <note default-x="128">
        <pitch>
          <step>C</step>
          <octave>5</octave>
        </pitch>
        <duration>4</duration>
        <voice>1</voice>
        <type>quarter</type>
        <stem default-y="-51">down</stem>
        <lyric number="1" default-y="-84">
          <syllabic>single</syllabic>
          <text>nah</text>
        </lyric>
      </note>
      <note default-x="185">
        <pitch>
          <step>D</step>
          <octave>5</octave>
        </pitch>
        <duration>4</duration>
        <voice>1</voice>
        <type>quarter</type>
        <stem default-y="-47">down</stem>
        <lyric number="1" default-y="-84">
          <syllabic>begin</syllabic>
          <text>a</text>
        </lyric>
      </note>
    </measure>
    <!--=======================================================-->
    <measure number="13" width="246">
      <note default-x="16">
        <pitch>
          <step>B</step>
          <octave>4</octave>
        </pitch>
        <duration>8</duration>
        <voice>1</voice>
        <type>half</type>
        <stem default-y="-57">down</stem>
        <lyric number="1" default-y="-84">
          <syllabic>end</syllabic>
          <text>ir</text>
        </lyric>
      </note>
      <note default-x="112">
        <pitch>
          <step>A</step>
          <octave>4</octave>
        </pitch>
        <duration>4</duration>
        <voice>1</voice>
        <type>quarter</type>
        <stem default-y="10">up</stem>
        <lyric number="1" default-y="-84">
          <syllabic>single</syllabic>
          <text>ku</text>
        </lyric>
      </note>
      <direction placement="above">
        <direction-type>
          <words default-y="53" relative-x="-7" font-family="serif" font-size="9">In-do</words>
        </direction-type>
      </direction>
      <note default-x="168">
        <pitch>
          <step>A</step>
          <octave>4</octave>
        </pitch>
        <duration>3</duration>
        <voice>1</voice>
        <type>eighth</type>
        <dot/>
        <stem default-y="10">up</stem>
        <beam number="1">begin</beam>
        <lyric number="1" default-y="-84">
          <syllabic>single</syllabic>
          <text>Ma</text>
        </lyric>
      </note>
      <note default-x="216">
        <pitch>
          <step>A</step>
          <octave>4</octave>
        </pitch>
        <duration>1</duration>
        <voice>1</voice>
        <type>16th</type>
        <stem default-y="10">up</stem>
        <beam number="1">end</beam>
        <beam number="2">backward hook</beam>
        <lyric number="1" default-y="-84">
          <syllabic>single</syllabic>
          <text>ri</text>
        </lyric>
      </note>
    </measure>
    <!--=======================================================-->
    <measure number="14" width="311">
      <print new-system="yes">
        <system-layout>
          <system-margins>
            <left-margin>-73</left-margin>
            <right-margin>-73</right-margin>
          </system-margins>
          <system-distance>99</system-distance>
        </system-layout>
      </print>
      <attributes>
        <staff-details print-object="yes"></staff-details>
      </attributes>
      <direction placement="above">
        <direction-type>
          <words default-y="56" relative-x="-5" font-family="serif" font-size="6">ne sia</words>
        </direction-type>
      </direction>
      <note default-x="61">
        <pitch>
          <step>F</step>
          <octave>5</octave>
        </pitch>
        <duration>4</duration>
        <voice>1</voice>
        <type>quarter</type>
        <stem default-y="-36">down</stem>
        <lyric number="1" default-y="-84">
          <syllabic>single</syllabic>
          <text>lah</text>
        </lyric>
      </note>
      <note default-x="123">
        <pitch>
          <step>F</step>
          <octave>5</octave>
        </pitch>
        <duration>4</duration>
        <voice>1</voice>
        <type>quarter</type>
        <stem default-y="-36">down</stem>
        <lyric number="1" default-y="-84">
          <syllabic>single</syllabic>
          <text>ki</text>
        </lyric>
      </note>
      <note default-x="186">
        <pitch>
          <step>E</step>
          <octave>5</octave>
        </pitch>
        <duration>4</duration>
        <voice>1</voice>
        <type>quarter</type>
        <stem default-y="-41">down</stem>
        <lyric number="1" default-y="-84">
          <syllabic>single</syllabic>
          <text>ta</text>
        </lyric>
      </note>
      <direction placement="above">
        <direction-type>
          <words default-y="56" relative-x="-38" font-family="serif" font-size="7">ke-bang-sa an - ku</words>
        </direction-type>
      </direction>
      <note default-x="248">
        <pitch>
          <step>D</step>
          <octave>5</octave>
        </pitch>
        <duration>4</duration>
        <voice>1</voice>
        <type>quarter</type>
        <stem default-y="-47">down</stem>
        <lyric number="1" default-y="-84">
          <syllabic>single</syllabic>
          <text>bet</text>
        </lyric>
      </note>
    </measure>
    <!--=======================================================-->
    <measure number="15" width="273">
      <note default-x="16">
        <pitch>
          <step>G</step>
          <octave>5</octave>
        </pitch>
        <duration>8</duration>
        <voice>1</voice>
        <type>half</type>
        <stem default-y="-31">down</stem>
        <lyric number="1" default-y="-84">
          <syllabic>single</syllabic>
          <text>se</text>
        </lyric>
      </note>
      <note default-x="122">
        <pitch>
          <step>C</step>
          <octave>5</octave>
        </pitch>
        <duration>4</duration>
        <voice>1</voice>
        <type>quarter</type>
        <stem default-y="-51">down</stem>
        <lyric number="1" default-y="-84">
          <syllabic>single</syllabic>
          <text>ru</text>
        </lyric>
      </note>
      <direction placement="above">
        <direction-type>
          <words default-y="56" relative-x="0" font-family="serif" font-size="7">Bang-5a dan ta nah a - ir</words>
        </direction-type>
      </direction>
      <note default-x="185">
        <pitch>
          <step>B</step>
          <octave>4</octave>
        </pitch>
        <duration>3</duration>
        <voice>1</voice>
        <type>eighth</type>
        <dot/>
        <stem default-y="12">up</stem>
        <beam number="1">begin</beam>
        <lyric number="1" default-y="-84">
          <syllabic>single</syllabic>
          <text>In</text>
        </lyric>
      </note>
      <note default-x="239">
        <pitch>
          <step>A</step>
          <octave>4</octave>
        </pitch>
        <duration>1</duration>
        <voice>1</voice>
        <type>16th</type>
        <stem default-y="10">up</stem>
        <beam number="1">end</beam>
        <beam number="2">backward hook</beam>
        <lyric number="1" default-y="-84">
          <syllabic>begin</syllabic>
          <text>do</text>
        </lyric>
      </note>
    </measure>
    <!--=======================================================-->
    <measure number="16" width="266">
      <note default-x="16">
        <pitch>
          <step>G</step>
          <octave>4</octave>
        </pitch>
        <duration>4</duration>
        <voice>1</voice>
        <type>quarter</type>
        <stem default-y="6">up</stem>
        <lyric number="1" default-y="-84">
          <syllabic>end</syllabic>
          <text>ne</text>
        </lyric>
      </note>
      <note default-x="79">
        <pitch>
          <step>F</step>
          <octave>5</octave>
        </pitch>
        <duration>4</duration>
        <voice>1</voice>
        <type>quarter</type>
        <stem default-y="-36">down</stem>
        <lyric number="1" default-y="-84">
          <syllabic>single</syllabic>
          <text>sia</text>
        </lyric>
      </note>
      <note default-x="142">
        <pitch>
          <step>E</step>
          <octave>5</octave>
        </pitch>
        <duration>4</duration>
        <voice>1</voice>
        <type>quarter</type>
        <stem default-y="-41">down</stem>
        <lyric number="1" default-y="-84">
          <syllabic>single</syllabic>
          <text>ber</text>
        </lyric>
      </note>
      <note default-x="205">
        <pitch>
          <step>D</step>
          <octave>5</octave>
        </pitch>
        <duration>4</duration>
        <voice>1</voice>
        <type>quarter</type>
        <stem default-y="-47">down</stem>
        <lyric number="1" default-y="-84">
          <syllabic>single</syllabic>
          <text>sa</text>
        </lyric>
      </note>
    </measure>
    <!--=======================================================-->
    <measure number="17" width="231">
      <note default-x="16">
        <pitch>
          <step>C</step>
          <octave>5</octave>
        </pitch>
        <duration>12</duration>
        <voice>1</voice>
        <type>half</type>
        <dot/>
        <stem default-y="-51">down</stem>
        <lyric number="1" default-y="-84">
          <syllabic>single</syllabic>
          <text>tu</text>
        </lyric>
      </note>
      <direction placement="above">
        <direction-type>
          <words default-y="56" relative-x="-51" font-family="serif" font-size="7">ku Ma ri</words>
        </direction-type>
      </direction>
      <note default-x="143">
        <pitch>
          <step>G</step>
          <octave>4</octave>
        </pitch>
        <duration>3</duration>
        <voice>1</voice>
        <type>eighth</type>
        <dot/>
        <stem default-y="2">up</stem>
        <beam number="1">begin</beam>
        <lyric number="1" default-y="-84">
          <syllabic>begin</syllabic>
          <text>Hi</text>
        </lyric>
      </note>
      <note default-x="197">
        <pitch>
          <step>G</step>
          <octave>4</octave>
        </pitch>
        <duration>1</duration>
        <voice>1</voice>
        <type>16th</type>
        <stem default-y="3">up</stem>
        <beam number="1">end</beam>
        <beam number="2">backward hook</beam>
        <lyric number="1" default-y="-84">
          <syllabic>end</syllabic>
          <text>dup</text>
        </lyric>
      </note>
    </measure>
    <!--=======================================================-->
    <measure number="18" width="317">
      <print new-system="yes">
        <system-layout>
          <system-margins>
            <left-margin>-73</left-margin>
            <right-margin>-73</right-margin>
          </system-margins>
          <system-distance>96</system-distance>
        </system-layout>
      </print>
      <attributes>
        <staff-details print-object="yes"></staff-details>
      </attributes>
      <direction placement="above">
        <direction-type>
          <words default-y="54" relative-x="-5" font-family="serif" font-size="6">lah</words>
        </direction-type>
      </direction>
      <note default-x="60">
        <pitch>
          <step>A</step>
          <octave>4</octave>
        </pitch>
        <duration>4</duration>
        <voice>1</voice>
        <type>quarter</type>
        <stem default-y="10">up</stem>
        <lyric number="1" default-y="-84">
          <syllabic>single</syllabic>
          <text>lah</text>
        </lyric>
      </note>
      <note default-x="105">
        <pitch>
          <step>F</step>
          <octave>5</octave>
        </pitch>
        <duration>3</duration>
        <voice>1</voice>
        <type>eighth</type>
        <dot/>
        <stem default-y="-33">down</stem>
        <beam number="1">begin</beam>
        <lyric number="1" default-y="-84">
          <syllabic>begin</syllabic>
          <text>Ta</text>
        </lyric>
      </note>
      <note default-x="150">
        <pitch>
          <step>F</step>
          <octave>5</octave>
        </pitch>
        <duration>1</duration>
        <voice>1</voice>
        <type>16th</type>
        <stem default-y="-33">down</stem>
        <beam number="1">end</beam>
        <beam number="2">backward hook</beam>
        <lyric number="1" default-y="-84">
          <syllabic>middle</syllabic>
          <text>nah</text>
        </lyric>
      </note>
      <note default-x="195">
        <pitch>
          <step>F</step>
          <octave>5</octave>
        </pitch>
        <duration>4</duration>
        <voice>1</voice>
        <type>quarter</type>
        <stem default-y="-35">down</stem>
        <lyric number="1" default-y="-84">
          <syllabic>end</syllabic>
          <text>ku</text>
        </lyric>
      </note>
      <direction placement="above">
        <direction-type>
          <words default-y="54" relative-x="1" font-family="serif" font-size="7">bet</words>
        </direction-type>
      </direction>
      <note default-x="240">
        <pitch>
          <step>F</step>
          <octave>5</octave>
        </pitch>
        <duration>3</duration>
        <voice>1</voice>
        <type>eighth</type>
        <dot/>
        <stem default-y="-33">down</stem>
        <beam number="1">begin</beam>
        <lyric number="1" default-y="-84">
          <syllabic>begin</syllabic>
          <text>hi</text>
        </lyric>
      </note>
      <note default-x="278">
        <pitch>
          <step>F</step>
          <octave>5</octave>
        </pitch>
        <duration>1</duration>
        <voice>1</voice>
        <type>16th</type>
        <stem default-y="-33">down</stem>
        <beam number="1">end</beam>
        <beam number="2">backward hook</beam>
        <lyric number="1" default-y="-84">
          <syllabic>middle</syllabic>
          <text>dup</text>
        </lyric>
      </note>
    </measure>
    <!--=======================================================-->
    <measure number="19" width="272">
      <note default-x="16">
        <pitch>
          <step>E</step>
          <octave>5</octave>
        </pitch>
        <duration>4</duration>
        <voice>1</voice>
        <type>quarter</type>
        <stem default-y="-42">down</stem>
        <lyric number="1" default-y="-84">
          <syllabic>end</syllabic>
          <text>lah</text>
        </lyric>
      </note>
      <direction placement="below">
        <direction-type>
          <words default-y="-121" relative-x="-28" font-family="serif" font-style="italic" font-size="6">http://sahabalkuseni. blogspot. com</words>
        </direction-type>
      </direction>
      <note default-x="62">
        <pitch>
          <step>C</step>
          <octave>5</octave>
        </pitch>
        <duration>3</duration>
        <voice>1</voice>
        <type>eighth</type>
        <dot/>
        <stem default-y="-52">down</stem>
        <beam number="1">begin</beam>
        <lyric number="1" default-y="-84">
          <syllabic>begin</syllabic>
          <text>Ne</text>
        </lyric>
      </note>
      <note default-x="105">
        <pitch>
          <step>C</step>
          <octave>5</octave>
        </pitch>
        <duration>1</duration>
        <voice>1</voice>
        <type>16th</type>
        <stem default-y="-51">down</stem>
        <beam number="1">end</beam>
        <beam number="2">backward hook</beam>
        <lyric number="1" default-y="-84">
          <syllabic>middle</syllabic>
          <text>gri</text>
        </lyric>
      </note>
      <note default-x="145">
        <pitch>
          <step>C</step>
          <octave>5</octave>
        </pitch>
        <duration>4</duration>
        <voice>1</voice>
        <type>quarter</type>
        <stem default-y="-51">down</stem>
        <lyric number="1" default-y="-84">
          <syllabic>end</syllabic>
          <text>ku</text>
        </lyric>
      </note>
      <direction placement="above">
        <direction-type>
          <words default-y="54" relative-x="-15" font-family="serif" font-size="6">In do - ne</words>
        </direction-type>
      </direction>
      <note default-x="192">
        <pitch>
          <step>B</step>
          <octave>4</octave>
        </pitch>
        <duration>3</duration>
        <voice>1</voice>
        <type>eighth</type>
        <dot/>
        <stem default-y="-54">down</stem>
        <beam number="1">begin</beam>
        <lyric number="1" default-y="-84">
          <syllabic>begin</syllabic>
          <text>Bang</text>
        </lyric>
      </note>
      <note default-x="241">
        <pitch>
          <step>C</step>
          <octave>5</octave>
        </pitch>
        <duration>1</duration>
        <voice>1</voice>
        <type>16th</type>
        <stem default-y="-51">down</stem>
        <beam number="1">end</beam>
        <beam number="2">backward hook</beam>
        <lyric number="1" default-y="-84">
          <syllabic>end</syllabic>
          <text>sa</text>
        </lyric>
      </note>
    </measure>
    <!--=======================================================-->
    <measure number="20" width="272">
      <note default-x="16">
        <pitch>
          <step>D</step>
          <octave>5</octave>
        </pitch>
        <duration>4</duration>
        <voice>1</voice>
        <type>quarter</type>
        <stem default-y="-46">down</stem>
        <lyric number="1" default-y="-84">
          <syllabic>single</syllabic>
          <text>ku</text>
        </lyric>
      </note>
      <direction placement="above">
        <direction-type>
          <words default-y="54" relative-x="8" font-family="serif" font-size="6">sia ber</words>
        </direction-type>
      </direction>
      <note default-x="61">
        <pitch>
          <step>G</step>
          <octave>5</octave>
        </pitch>
        <duration>3</duration>
        <voice>1</voice>
        <type>eighth</type>
        <dot/>
        <stem default-y="-31">down</stem>
        <beam number="1">begin</beam>
        <lyric number="1" default-y="-84">
          <syllabic>begin</syllabic>
          <text>Rak</text>
        </lyric>
      </note>
      <note default-x="111">
        <pitch>
          <step>G</step>
          <octave>5</octave>
        </pitch>
        <duration>1</duration>
        <voice>1</voice>
        <type>16th</type>
        <stem default-y="-32">down</stem>
        <beam number="1">end</beam>
        <beam number="2">backward hook</beam>
        <lyric number="1" default-y="-84">
          <syllabic>middle</syllabic>
          <text>yat</text>
        </lyric>
      </note>
      <note default-x="155">
        <pitch>
          <step>G</step>
          <octave>5</octave>
        </pitch>
        <duration>4</duration>
        <voice>1</voice>
        <type>quarter</type>
        <stem default-y="-31">down</stem>
        <lyric number="1" default-y="-84">
          <syllabic>end</syllabic>
          <text>ku</text>
        </lyric>
      </note>
      <note default-x="198">
        <pitch>
          <step>F</step>
          <octave>5</octave>
        </pitch>
        <duration>3</duration>
        <voice>1</voice>
        <type>eighth</type>
        <dot/>
        <stem default-y="-33">down</stem>
        <beam number="1">begin</beam>
        <lyric number="1" default-y="-84">
          <syllabic>begin</syllabic>
          <text>se</text>
        </lyric>
      </note>
      <note default-x="238">
        <pitch>
          <step>F</step>
          <octave>5</octave>
        </pitch>
        <duration>1</duration>
        <voice>1</voice>
        <type>16th</type>
        <stem default-y="-33">down</stem>
        <beam number="1">end</beam>
        <beam number="2">backward hook</beam>
        <lyric number="1" default-y="-84">
          <syllabic>middle</syllabic>
          <text>mu</text>
        </lyric>
      </note>
    </measure>
    <!--=======================================================-->
    <measure number="21" width="220">
      <note default-x="17">
        <pitch>
          <step>E</step>
          <octave>5</octave>
        </pitch>
        <duration>8</duration>
        <voice>1</voice>
        <type>half</type>
        <stem default-y="-41">down</stem>
        <lyric number="1" default-y="-84">
          <syllabic>end</syllabic>
          <text>a</text>
        </lyric>
      </note>
      <note default-x="93">
        <pitch>
          <step>C</step>
          <octave>5</octave>
        </pitch>
        <duration>4</duration>
        <voice>1</voice>
        <type>quarter</type>
        <stem default-y="-51">down</stem>
        <lyric number="1" default-y="-84">
          <syllabic>single</syllabic>
          <text>nya</text>
        </lyric>
      </note>
      <direction placement="above">
        <direction-type>
          <words default-y="54" relative-x="-9" font-family="serif" font-size="6">Hi - dup</words>
        </direction-type>
      </direction>
      <note default-x="137">
        <pitch>
          <step>G</step>
          <octave>4</octave>
        </pitch>
        <duration>3</duration>
        <voice>1</voice>
        <type>eighth</type>
        <dot/>
        <stem default-y="3">up</stem>
        <beam number="1">begin</beam>
        <lyric number="1" default-y="-84">
          <syllabic>begin</syllabic>
          <text>Ba</text>
        </lyric>
      </note>
      <note default-x="188">
        <pitch>
          <step>G</step>
          <octave>4</octave>
        </pitch>
        <duration>1</duration>
        <voice>1</voice>
        <type>16th</type>
        <stem default-y="3">up</stem>
        <beam number="1">end</beam>
        <beam number="2">backward hook</beam>
        <lyric number="1" default-y="-84">
          <syllabic>end</syllabic>
          <text>ngun</text>
        </lyric>
      </note>
    </measure>
    <!--=======================================================-->
    <measure number="22" width="349">
      <print new-system="yes">
        <system-layout>
          <system-margins>
            <left-margin>-73</left-margin>
            <right-margin>-73</right-margin>
          </system-margins>
          <system-distance>107</system-distance>
        </system-layout>
      </print>
      <attributes>
        <staff-details print-object="yes"></staff-details>
      </attributes>
      <direction placement="above">
        <direction-type>
          <words default-y="64" relative-x="-6" font-family="serif" font-size="7">lah Ta-nah-ku hi-dup- lah Ne-gri-ku Bang-sa ku Rak-yat-ku se-mu - a</words>
        </direction-type>
      </direction>
      <note default-x="61">
        <pitch>
          <step>A</step>
          <octave>4</octave>
        </pitch>
        <duration>4</duration>
        <voice>1</voice>
        <type>quarter</type>
        <stem default-y="10">up</stem>
        <lyric number="1" default-y="-85">
          <syllabic>begin</syllabic>
          <text>lah</text>
        </lyric>
      </note>
      <note default-x="113">
        <pitch>
          <step>F</step>
          <octave>5</octave>
        </pitch>
        <duration>3</duration>
        <voice>1</voice>
        <type>eighth</type>
        <dot/>
        <stem default-y="-34">down</stem>
        <beam number="1">begin</beam>
        <lyric number="1" default-y="-85">
          <syllabic>middle</syllabic>
          <text>ji</text>
        </lyric>
      </note>
      <note default-x="158">
        <pitch>
          <step>F</step>
          <octave>5</octave>
        </pitch>
        <duration>1</duration>
        <voice>1</voice>
        <type>16th</type>
        <stem default-y="-34">down</stem>
        <beam number="1">end</beam>
        <beam number="2">backward hook</beam>
        <lyric number="1" default-y="-85">
          <syllabic>middle</syllabic>
          <text>wa</text>
        </lyric>
      </note>
      <note default-x="202">
        <pitch>
          <step>F</step>
          <octave>5</octave>
        </pitch>
        <duration>4</duration>
        <voice>1</voice>
        <type>quarter</type>
        <stem default-y="-36">down</stem>
        <lyric number="1" default-y="-85">
          <syllabic>end</syllabic>
          <text>nya</text>
        </lyric>
      </note>
      <note default-x="254">
        <pitch>
          <step>F</step>
          <octave>5</octave>
        </pitch>
        <duration>3</duration>
        <voice>1</voice>
        <type>eighth</type>
        <dot/>
        <stem default-y="-34">down</stem>
        <beam number="1">begin</beam>
        <lyric number="1" default-y="-85">
          <syllabic>begin</syllabic>
          <text>ba</text>
        </lyric>
      </note>
      <note default-x="305">
        <pitch>
          <step>F</step>
          <octave>5</octave>
        </pitch>
        <duration>1</duration>
        <voice>1</voice>
        <type>16th</type>
        <stem default-y="-34">down</stem>
        <beam number="1">end</beam>
        <beam number="2">backward hook</beam>
        <lyric number="1" default-y="-85">
          <syllabic>middle</syllabic>
          <text>nglm</text>
        </lyric>
      </note>
    </measure>
    <!--=======================================================-->
    <measure number="23" width="288">
      <direction placement="above">
        <direction-type>
          <words default-y="28" relative-x="-14" font-family="serif" font-style="italic" font-size="6">http://sahabalkuseni. blogspot. com</words>
        </direction-type>
      </direction>
      <note default-x="15">
        <pitch>
          <step>E</step>
          <octave>5</octave>
        </pitch>
        <duration>4</duration>
        <voice>1</voice>
        <type>quarter</type>
        <stem default-y="-42">down</stem>
        <lyric number="1" default-y="-85">
          <syllabic>end</syllabic>
          <text>lah</text>
        </lyric>
      </note>
      <note default-x="68">
        <pitch>
          <step>C</step>
          <octave>5</octave>
        </pitch>
        <duration>3</duration>
        <voice>1</voice>
        <type>eighth</type>
        <dot/>
        <stem default-y="-51">down</stem>
        <beam number="1">begin</beam>
        <lyric number="1" default-y="-85">
          <syllabic>begin</syllabic>
          <text>ba</text>
        </lyric>
      </note>
      <note default-x="113">
        <pitch>
          <step>C</step>
          <octave>5</octave>
        </pitch>
        <duration>1</duration>
        <voice>1</voice>
        <type>16th</type>
        <stem default-y="-51">down</stem>
        <beam number="1">end</beam>
        <beam number="2">backward hook</beam>
        <lyric number="1" default-y="-85">
          <syllabic>middle</syllabic>
          <text>dan</text>
        </lyric>
      </note>
      <note default-x="164">
        <pitch>
          <step>C</step>
          <octave>5</octave>
        </pitch>
        <duration>4</duration>
        <voice>1</voice>
        <type>quarter</type>
        <stem default-y="-51">down</stem>
        <lyric number="1" default-y="-85">
          <syllabic>end</syllabic>
          <text>nya</text>
        </lyric>
      </note>
      <note default-x="216">
        <pitch>
          <step>B</step>
          <octave>4</octave>
        </pitch>
        <duration>3</duration>
        <voice>1</voice>
        <type>eighth</type>
        <dot/>
        <stem default-y="-55">down</stem>
        <beam number="1">begin</beam>
        <lyric number="1" default-y="-85">
          <syllabic>begin</syllabic>
          <text>un</text>
        </lyric>
      </note>
      <note default-x="259">
        <pitch>
          <step>C</step>
          <octave>5</octave>
        </pitch>
        <duration>1</duration>
        <voice>1</voice>
        <type>16th</type>
        <stem default-y="-52">down</stem>
        <beam number="1">end</beam>
        <beam number="2">backward hook</beam>
        <lyric number="1" default-y="-85">
          <syllabic>end</syllabic>
          <text>tuk</text>
        </lyric>
      </note>
    </measure>
    <!--=======================================================-->
    <measure number="24" width="250">
      <note default-x="16">
        <pitch>
          <step>D</step>
          <octave>5</octave>
        </pitch>
        <duration>4</duration>
        <voice>1</voice>
        <type>quarter</type>
        <stem default-y="-47">down</stem>
        <lyric number="1" default-y="-85">
          <syllabic>single</syllabic>
          <text>In</text>
        </lyric>
      </note>
      <note default-x="69">
        <pitch>
          <step>G</step>
          <octave>5</octave>
        </pitch>
        <duration>4</duration>
        <voice>1</voice>
        <type>quarter</type>
        <stem default-y="-31">down</stem>
        <lyric number="1" default-y="-85">
          <syllabic>begin</syllabic>
          <text>do</text>
        </lyric>
      </note>
      <note default-x="120">
        <pitch>
          <step>G</step>
          <octave>5</octave>
        </pitch>
        <duration>4</duration>
        <voice>1</voice>
        <type>quarter</type>
        <stem default-y="-31">down</stem>
        <lyric number="1" default-y="-85">
          <syllabic>end</syllabic>
          <text>ne</text>
        </lyric>
      </note>
      <note default-x="172">
        <pitch>
          <step>E</step>
          <octave>5</octave>
        </pitch>
        <duration>3</duration>
        <voice>1</voice>
        <type>eighth</type>
        <dot/>
        <stem default-y="-42">down</stem>
        <beam number="1">begin</beam>
        <lyric number="1" default-y="-85">
          <syllabic>single</syllabic>
          <text>sia</text>
        </lyric>
      </note>
      <note default-x="216">
        <pitch>
          <step>D</step>
          <octave>5</octave>
        </pitch>
        <duration>1</duration>
        <voice>1</voice>
        <type>16th</type>
        <stem default-y="-44">down</stem>
        <beam number="1">end</beam>
        <beam number="2">backward hook</beam>
        <lyric number="1" default-y="-85">
          <syllabic>begin</syllabic>
          <text>Ra</text>
        </lyric>
      </note>
    </measure>
    <!--=======================================================-->
    <measure number="25" width="194">
      <note default-x="16">
        <pitch>
          <step>C</step>
          <octave>5</octave>
        </pitch>
        <duration>12</duration>
        <voice>1</voice>
        <type>half</type>
        <dot/>
        <stem default-y="-51">down</stem>
        <lyric number="1" default-y="-85">
          <syllabic>end</syllabic>
          <text>ya</text>
        </lyric>
      </note>
      <direction placement="above">
        <direction-type>
          <words default-y="64" relative-x="-65" font-family="serif" font-size="7">nya Ba-ngun</words>
        </direction-type>
      </direction>
      <note default-x="121">
        <pitch>
          <step>C</step>
          <octave>5</octave>
        </pitch>
        <duration>3</duration>
        <voice>1</voice>
        <type>eighth</type>
        <dot/>
        <stem default-y="-52">down</stem>
        <beam number="1">begin</beam>
        <lyric number="1" default-y="-85">
          <syllabic>single</syllabic>
          <text>In</text>
        </lyric>
      </note>
      <note default-x="165">
        <pitch>
          <step>C</step>
          <octave>5</octave>
        </pitch>
        <duration>1</duration>
        <voice>1</voice>
        <type>16th</type>
        <stem default-y="-51">down</stem>
        <beam number="1">end</beam>
        <beam number="2">backward hook</beam>
        <lyric number="1" default-y="-85">
          <syllabic>single</syllabic>
          <text>do</text>
        </lyric>
      </note>
    </measure>
    <!--=======================================================-->
    <measure number="26" width="334">
      <print new-system="yes">
        <system-layout>
          <system-margins>
            <left-margin>-73</left-margin>
            <right-margin>-73</right-margin>
          </system-margins>
          <system-distance>115</system-distance>
        </system-layout>
      </print>
      <attributes>
        <time>
          <beats>3</beats>
          <beat-type>4</beat-type>
        </time>
        <staff-details print-object="yes"></staff-details>
      </attributes>
      <direction placement="above">
        <direction-type>
          <words default-y="72" relative-x="-30" font-family="serif" font-size="7">lah - ji - wa-nya ba-nglm- lah ba-dan-nya un-tuk In do - ne sia Ra-ya</words>
        </direction-type>
      </direction>
      <note default-x="85">
        <pitch>
          <step>F</step>
          <octave>5</octave>
        </pitch>
        <duration>4</duration>
        <voice>1</voice>
        <type>quarter</type>
        <stem default-y="-36">down</stem>
        <lyric number="1" default-y="-85">
          <syllabic>begin</syllabic>
          <text>ne</text>
        </lyric>
      </note>
      <note default-x="130">
        <pitch>
          <step>A</step>
          <octave>5</octave>
        </pitch>
        <duration>3</duration>
        <voice>1</voice>
        <type>eighth</type>
        <dot/>
        <stem default-y="-23">down</stem>
        <beam number="1">begin</beam>
        <lyric number="1" default-y="-85">
          <syllabic>end</syllabic>
          <text>sia</text>
        </lyric>
      </note>
      <note default-x="169">
        <pitch>
          <step>A</step>
          <octave>5</octave>
        </pitch>
        <duration>1</duration>
        <voice>1</voice>
        <type>16th</type>
        <stem default-y="-23">down</stem>
        <beam number="1">end</beam>
        <beam number="2">backward hook</beam>
        <lyric number="1" default-y="-85">
          <syllabic>begin</syllabic>
          <text>Ra</text>
        </lyric>
      </note>
      <note default-x="207">
        <pitch>
          <step>A</step>
          <octave>5</octave>
        </pitch>
        <duration>4</duration>
        <voice>1</voice>
        <type>quarter</type>
        <stem default-y="-25">down</stem>
        <lyric number="1" default-y="-85">
          <syllabic>end</syllabic>
          <text>ya</text>
        </lyric>
      </note>
      <note default-x="254">
        <pitch>
          <step>A</step>
          <octave>5</octave>
        </pitch>
        <duration>3</duration>
        <voice>1</voice>
        <type>eighth</type>
        <dot/>
        <stem default-y="-23">down</stem>
        <beam number="1">begin</beam>
        <lyric number="1" default-y="-85">
          <syllabic>begin</syllabic>
          <text>mer</text>
        </lyric>
      </note>
      <note default-x="302">
        <pitch>
          <step>A</step>
          <octave>5</octave>
        </pitch>
        <duration>1</duration>
        <voice>1</voice>
        <type>16th</type>
        <stem default-y="-23">down</stem>
        <beam number="1">end</beam>
        <beam number="2">backward hook</beam>
        <lyric number="1" default-y="-85">
          <syllabic>middle</syllabic>
          <text>de</text>
        </lyric>
      </note>
    </measure>
    <!--=======================================================-->
    <measure number="27" width="279">
      <note default-x="15">
        <pitch>
          <step>G</step>
          <octave>5</octave>
        </pitch>
        <duration>4</duration>
        <voice>1</voice>
        <type>quarter</type>
        <stem default-y="-32">down</stem>
        <lyric number="1" default-y="-85">
          <syllabic>end</syllabic>
          <text>ka</text>
        </lyric>
      </note>
      <note default-x="62">
        <pitch>
          <step>E</step>
          <octave>5</octave>
        </pitch>
        <duration>3</duration>
        <voice>1</voice>
        <type>eighth</type>
        <dot/>
        <stem default-y="-42">down</stem>
        <beam number="1">begin</beam>
        <lyric number="1" default-y="-85">
          <syllabic>begin</syllabic>
          <text>mer</text>
        </lyric>
      </note>
      <note default-x="111">
        <pitch>
          <step>E</step>
          <octave>5</octave>
        </pitch>
        <duration>1</duration>
        <voice>1</voice>
        <type>16th</type>
        <stem default-y="-42">down</stem>
        <beam number="1">end</beam>
        <beam number="2">backward hook</beam>
        <lyric number="1" default-y="-85">
          <syllabic>middle</syllabic>
          <text>de</text>
        </lyric>
      </note>
      <note default-x="148">
        <pitch>
          <step>E</step>
          <octave>5</octave>
        </pitch>
        <duration>4</duration>
        <voice>1</voice>
        <type>quarter</type>
        <stem default-y="-42">down</stem>
        <lyric number="1" default-y="-85">
          <syllabic>end</syllabic>
          <text>ka</text>
        </lyric>
      </note>
      <note default-x="194">
        <pitch>
          <step>G</step>
          <octave>5</octave>
        </pitch>
        <duration>3</duration>
        <voice>1</voice>
        <type>eighth</type>
        <dot/>
        <stem default-y="-32">down</stem>
        <beam number="1">begin</beam>
        <lyric number="1" default-y="-85">
          <syllabic>begin</syllabic>
          <text>Ta</text>
        </lyric>
      </note>
      <note default-x="240">
        <pitch>
          <step>G</step>
          <octave>5</octave>
        </pitch>
        <duration>1</duration>
        <voice>1</voice>
        <type>16th</type>
        <stem default-y="-32">down</stem>
        <beam number="1">end</beam>
        <beam number="2">backward hook</beam>
        <lyric number="1" default-y="-85">
          <syllabic>middle</syllabic>
          <text>nah</text>
        </lyric>
      </note>
    </measure>
    <!--=======================================================-->
    <measure number="28" width="265">
      <note default-x="15">
        <pitch>
          <step>F</step>
          <octave>5</octave>
        </pitch>
        <duration>4</duration>
        <voice>1</voice>
        <type>quarter</type>
        <stem default-y="-35">down</stem>
        <lyric number="1" default-y="-85">
          <syllabic>end</syllabic>
          <text>ku</text>
        </lyric>
      </note>
      <note default-x="61">
        <pitch>
          <step>D</step>
          <octave>5</octave>
        </pitch>
        <duration>2</duration>
        <voice>1</voice>
        <type>eighth</type>
        <stem default-y="-44">down</stem>
        <beam number="1">begin</beam>
        <lyric number="1" default-y="-85">
          <syllabic>begin</syllabic>
          <text>Ne</text>
        </lyric>
      </note>
      <note default-x="102">
        <pitch>
          <step>D</step>
          <octave>5</octave>
        </pitch>
        <duration>1</duration>
        <voice>1</voice>
        <type>16th</type>
        <stem default-y="-44">down</stem>
        <beam number="1">end</beam>
        <beam number="2">backward hook</beam>
        <lyric number="1" default-y="-85">
          <syllabic>middle</syllabic>
          <text>gri</text>
        </lyric>
      </note>
      <note default-x="142">
        <pitch>
          <step>D</step>
          <octave>5</octave>
        </pitch>
        <duration>4</duration>
        <voice>1</voice>
        <type>quarter</type>
        <stem default-y="-46">down</stem>
        <lyric number="1" default-y="-85">
          <syllabic>end</syllabic>
          <text>ku</text>
        </lyric>
      </note>
      <note default-x="186">
        <pitch>
          <step>G</step>
          <octave>5</octave>
        </pitch>
        <duration>3</duration>
        <voice>1</voice>
        <type>eighth</type>
        <dot/>
        <stem default-y="-32">down</stem>
        <beam number="1">begin</beam>
        <lyric number="1" default-y="-85">
          <syllabic>single</syllabic>
          <text>yang</text>
        </lyric>
      </note>
      <note default-x="233">
        <pitch>
          <step>F</step>
          <octave>5</octave>
        </pitch>
        <duration>1</duration>
        <voice>1</voice>
        <type>16th</type>
        <stem default-y="-33">down</stem>
        <beam number="1">end</beam>
        <beam number="2">backward hook</beam>
        <lyric number="1" default-y="-84">
          <syllabic>begin</syllabic>
          <text>ku</text>
        </lyric>
      </note>
    </measure>
    <!--=======================================================-->
    <measure number="29" width="204">
      <note default-x="17">
        <pitch>
          <step>E</step>
          <octave>5</octave>
        </pitch>
        <duration>8</duration>
        <voice>1</voice>
        <type>half</type>
        <stem default-y="-42">down</stem>
        <lyric number="1" default-y="-85">
          <syllabic>middle</syllabic>
          <text>cin</text>
        </lyric>
      </note>
      <note default-x="94">
        <pitch>
          <step>C</step>
          <octave>5</octave>
        </pitch>
        <duration>4</duration>
        <voice>1</voice>
        <type>quarter</type>
        <stem default-y="-52">down</stem>
        <lyric number="1" default-y="-85">
          <syllabic>end</syllabic>
          <text>ta</text>
        </lyric>
      </note>
      <direction placement="above">
        <direction-type>
          <words default-y="72" relative-x="-12" font-family="serif" font-size="6">In do</words>
        </direction-type>
      </direction>
      <note default-x="140">
        <pitch>
          <step>C</step>
          <octave>5</octave>
        </pitch>
        <duration>3</duration>
        <voice>1</voice>
        <type>eighth</type>
        <dot/>
        <stem default-y="-52">down</stem>
        <beam number="1">begin</beam>
        <lyric number="1" default-y="-85">
          <syllabic>begin</syllabic>
          <text>In</text>
        </lyric>
      </note>
      <note default-x="179">
        <pitch>
          <step>C</step>
          <octave>5</octave>
        </pitch>
        <duration>1</duration>
        <voice>1</voice>
        <type>16th</type>
        <stem default-y="-52">down</stem>
        <beam number="1">end</beam>
        <beam number="2">backward hook</beam>
        <lyric number="1" default-y="-85">
          <syllabic>end</syllabic>
          <text>do</text>
        </lyric>
      </note>
    </measure>
    <!--=======================================================-->
    <measure number="30" width="563">
      <print new-system="yes">
        <system-layout>
          <system-margins>
            <left-margin>-73</left-margin>
            <right-margin>-73</right-margin>
          </system-margins>
          <system-distance>135</system-distance>
        </system-layout>
      </print>
      <attributes>
        <staff-details print-object="yes"></staff-details>
      </attributes>
      <direction placement="above">
        <direction-type>
          <words default-y="91" relative-x="20" font-family="serif" font-size="7">ne-sia Ra-ya mer-de-ka mer-de-ka Ta-nah-ku Ne-gri-ku yang ku-cin - ta In-do</words>
        </direction-type>
      </direction>
      <note default-x="60">
        <pitch>
          <step>F</step>
          <octave>5</octave>
        </pitch>
        <duration>4</duration>
        <voice>1</voice>
        <type>quarter</type>
        <stem default-y="-36">down</stem>
      </note>
      <note default-x="165">
        <pitch>
          <step>A</step>
          <octave>5</octave>
        </pitch>
        <duration>3</duration>
        <voice>1</voice>
        <type>eighth</type>
        <dot/>
        <stem default-y="-23">down</stem>
        <beam number="1">begin</beam>
      </note>
      <note default-x="254">
        <pitch>
          <step>A</step>
          <octave>5</octave>
        </pitch>
        <duration>1</duration>
        <voice>1</voice>
        <type>16th</type>
        <stem default-y="-23">down</stem>
        <beam number="1">end</beam>
        <beam number="2">backward hook</beam>
      </note>
      <note default-x="312">
        <pitch>
          <step>A</step>
          <octave>5</octave>
        </pitch>
        <duration>4</duration>
        <voice>1</voice>
        <type>quarter</type>
        <stem default-y="-26">down</stem>
      </note>
      <note default-x="415">
        <pitch>
          <step>A</step>
          <octave>5</octave>
        </pitch>
        <duration>3</duration>
        <voice>1</voice>
        <type>eighth</type>
        <dot/>
        <stem default-y="-23">down</stem>
        <beam number="1">begin</beam>
      </note>
      <note default-x="505">
        <pitch>
          <step>A</step>
          <octave>5</octave>
        </pitch>
        <duration>1</duration>
        <voice>1</voice>
        <type>16th</type>
        <stem default-y="-23">down</stem>
        <beam number="1">end</beam>
        <beam number="2">backward hook</beam>
      </note>
    </measure>
    <!--=======================================================-->
    <measure number="31" width="518">
      <note default-x="15">
        <pitch>
          <step>G</step>
          <octave>5</octave>
        </pitch>
        <duration>4</duration>
        <voice>1</voice>
        <type>quarter</type>
        <stem default-y="-31">down</stem>
      </note>
      <note default-x="121">
        <pitch>
          <step>E</step>
          <octave>5</octave>
        </pitch>
        <duration>3</duration>
        <voice>1</voice>
        <type>eighth</type>
        <dot/>
        <stem default-y="-42">down</stem>
        <beam number="1">begin</beam>
      </note>
      <note default-x="211">
        <pitch>
          <step>E</step>
          <octave>5</octave>
        </pitch>
        <duration>1</duration>
        <voice>1</voice>
        <type>16th</type>
        <stem default-y="-42">down</stem>
        <beam number="1">end</beam>
        <beam number="2">backward hook</beam>
      </note>
      <note default-x="268">
        <pitch>
          <step>E</step>
          <octave>5</octave>
        </pitch>
        <duration>4</duration>
        <voice>1</voice>
        <type>quarter</type>
        <stem default-y="-41">down</stem>
      </note>
      <note default-x="371">
        <pitch>
          <step>G</step>
          <octave>5</octave>
        </pitch>
        <duration>3</duration>
        <voice>1</voice>
        <type>eighth</type>
        <dot/>
        <stem default-y="-31">down</stem>
        <beam number="1">begin</beam>
      </note>
      <note default-x="461">
        <pitch>
          <step>G</step>
          <octave>5</octave>
        </pitch>
        <duration>1</duration>
        <voice>1</voice>
        <type>16th</type>
        <stem default-y="-31">down</stem>
        <beam number="1">end</beam>
        <beam number="2">backward hook</beam>
      </note>
    </measure>
    <!--=======================================================-->
    <measure number="32" width="466">
      <print new-system="yes">
        <system-layout>
          <system-margins>
            <left-margin>-73</left-margin>
            <right-margin>-70</right-margin>
          </system-margins>
          <system-distance>102</system-distance>
        </system-layout>
      </print>
      <attributes>
        <staff-details print-object="yes"></staff-details>
      </attributes>
      <note default-x="61">
        <pitch>
          <step>G</step>
          <octave>5</octave>
        </pitch>
        <duration>4</duration>
        <voice>1</voice>
        <type>quarter</type>
        <stem default-y="-31">down</stem>
        <lyric number="1" default-y="-84">
          <syllabic>single</syllabic>
          <text>lah</text>
        </lyric>
      </note>
      <note default-x="145">
        <pitch>
          <step>F</step>
          <octave>5</octave>
        </pitch>
        <duration>3</duration>
        <voice>1</voice>
        <type>eighth</type>
        <dot/>
        <stem default-y="-42">down</stem>
        <beam number="1">begin</beam>
        <lyric number="1" default-y="-84">
          <syllabic>single</syllabic>
          <text>In</text>
        </lyric>
      </note>
      <note default-x="218">
        <pitch>
          <step>E</step>
          <octave>5</octave>
        </pitch>
        <duration>1</duration>
        <voice>1</voice>
        <type>16th</type>
        <stem default-y="-44">down</stem>
        <beam number="1">end</beam>
        <beam number="2">backward hook</beam>
        <lyric number="1" default-y="-84">
          <syllabic>begin</syllabic>
          <text>do</text>
        </lyric>
      </note>
      <note default-x="263">
        <pitch>
          <step>D</step>
          <octave>5</octave>
        </pitch>
        <duration>4</duration>
        <voice>1</voice>
        <type>quarter</type>
        <stem default-y="-47">down</stem>
        <lyric number="1" default-y="-84">
          <syllabic>end</syllabic>
          <text>ne</text>
        </lyric>
      </note>
      <note default-x="348">
        <pitch>
          <step>E</step>
          <octave>5</octave>
        </pitch>
        <duration>2</duration>
        <voice>1</voice>
        <type>eighth</type>
        <stem default-y="-42">down</stem>
        <beam number="1">begin</beam>
        <lyric number="1" default-y="-84">
          <syllabic>single</syllabic>
          <text>Sia</text>
        </lyric>
        <lyric number="2" default-y="-110">
          <syllabic>single</syllabic>
          <text>Copyright</text>
        </lyric>
      </note>
      <note default-x="420">
        <pitch>
          <step>D</step>
          <octave>5</octave>
        </pitch>
        <duration>1</duration>
        <voice>1</voice>
        <type>16th</type>
        <stem default-y="-44">down</stem>
        <beam number="1">end</beam>
        <beam number="2">backward hook</beam>
        <lyric number="1" default-y="-84">
          <syllabic>begin</syllabic>
          <text>Ra</text>
        </lyric>
        <lyric number="2" default-y="-110">
          <syllabic>single</syllabic>
          <text>2014,</text>
        </lyric>
      </note>
    </measure>
    <!--=======================================================-->
    <measure number="33" width="326">
      <barline location="left">
        <bar-style>regular</bar-style>
        <ending number="99" type="start" end-length="25" default-y="41"></ending>
      </barline>
      <note default-x="16">
        <pitch>
          <step>C</step>
          <octave>5</octave>
        </pitch>
        <duration>12</duration>
        <voice>1</voice>
        <type>half</type>
        <dot/>
        <stem default-y="-52">down</stem>
        <lyric number="1" default-y="-84">
          <syllabic>end</syllabic>
          <text>ya</text>
        </lyric>
      </note>
      <note default-x="186">
        <pitch>
          <step>C</step>
          <octave>5</octave>
        </pitch>
        <duration>2</duration>
        <voice>1</voice>
        <type>eighth</type>
        <stem default-y="-52">down</stem>
        <beam number="1">begin</beam>
        <lyric number="1" default-y="-84">
          <syllabic>begin</syllabic>
          <text>In</text>
        </lyric>
      </note>
      <note default-x="258">
        <pitch>
          <step>C</step>
          <octave>5</octave>
        </pitch>
        <duration>1</duration>
        <voice>1</voice>
        <type>16th</type>
        <stem default-y="-52">down</stem>
        <beam number="1">end</beam>
        <beam number="2">backward hook</beam>
        <lyric number="1" default-y="-84">
          <syllabic>end</syllabic>
          <text>do</text>
        </lyric>
      </note>
      <barline location="right">
        <bar-style>light-heavy</bar-style>
        <ending number="99" type="stop" end-length="25" default-y="41"></ending>
        <repeat direction="backward"></repeat>
      </barline>
    </measure>
    <!--=======================================================-->
    <measure number="34" width="285">
      <barline location="left">
        <bar-style>light-heavy</bar-style>
        <ending number="99" type="start" end-length="25" default-y="41"></ending>
      </barline>
      <note default-x="19">
        <pitch>
          <step>C</step>
          <octave>5</octave>
        </pitch>
        <duration>12</duration>
        <voice>1</voice>
        <type>half</type>
        <dot/>
        <stem default-y="-52">down</stem>
        <lyric number="1" default-y="-84">
          <syllabic>single</syllabic>
          <text>ya</text>
        </lyric>
      </note>
      <note default-x="188">
        <rest>
          <display-step>B</display-step>
          <display-octave>4</display-octave>
        </rest>
        <duration>4</duration>
        <voice>1</voice>
        <type>quarter</type>
      </note>
      <barline location="right">
        <bar-style>light-heavy</bar-style>
        <ending number="99" type="discontinue" default-y="41"></ending>
      </barline>
    </measure>
  </part>
</score-partwise>